HIERARCHY
ROOT Hips
{
    OFFSET   0.000000   0.000000   0.000000
    CHANNELS 6 Xposition Yposition Zposition Zrotation Xrotation Yrotation
    JOINT Chest
    {
        OFFSET   0.000000   8.007240   0.000000
        CHANNELS 3 Zrotation Xrotation Yrotation
        JOINT Chest2
        {
            OFFSET   0.000000  22.077100   0.000000
            CHANNELS 3 Zrotation Xrotation Yrotation
            JOINT Neck
            {
                OFFSET   0.000000  23.254800   0.000000
                CHANNELS 3 Zrotation Xrotation Yrotation
                JOINT Head
                {
                    OFFSET   0.000000  14.370000   1.956600
                    CHANNELS 3 Zrotation Xrotation Yrotation
                    End Site
                    {
                        OFFSET   0.000000  19.566000   0.000000
                    }
                }
            }
            JOINT LeftCollar
            {
                OFFSET   3.911900  19.017000  -0.467064
                CHANNELS 3 Zrotation Xrotation Yrotation
                JOINT LeftShoulder
                {
                    OFFSET  10.383700   0.000000   0.000000
                    CHANNELS 3 Zrotation Xrotation Yrotation
                    JOINT LeftElbow
                    {
                        OFFSET  26.662100   0.001476   0.000517
                        CHANNELS 3 Zrotation Xrotation Yrotation
                        JOINT LeftWrist
                        {
                            OFFSET  28.869000  -0.000025  -0.000106
                            CHANNELS 3 Zrotation Xrotation Yrotation
                            JOINT LeftFinger0
                            {
                                OFFSET   2.044660  -2.323460   3.252850
                                CHANNELS 3 Zrotation Xrotation Yrotation
                                JOINT LeftFinger01
                                {
                                    OFFSET   3.088130   0.000000   0.000000
                                    CHANNELS 3 Zrotation Xrotation Yrotation
                                    JOINT LeftFinger02
                                    {
                                        OFFSET   2.639460   0.000000   0.000000
                                        CHANNELS 3 Zrotation Xrotation Yrotation
                                        End Site
                                        {
                                            OFFSET   2.582190   0.000000   0.000000
                                        }
                                    }
                                }
                            }
                            JOINT LeftFinger1
                            {
                                OFFSET   8.364480   0.000000   3.252850
                                CHANNELS 3 Zrotation Xrotation Yrotation
                                JOINT LeftFinger11
                                {
                                    OFFSET   4.646930   0.000000   0.000000
                                    CHANNELS 3 Zrotation Xrotation Yrotation
                                    JOINT LeftFinger12
                                    {
                                        OFFSET   2.323460   0.000000   0.000000
                                        CHANNELS 3 Zrotation Xrotation Yrotation
                                        End Site
                                        {
                                            OFFSET   2.273050   0.000000   0.000000
                                        }
                                    }
                                }
                            }
                            JOINT LeftFinger2
                            {
                                OFFSET   8.364490   0.000015   1.078090
                                CHANNELS 3 Zrotation Xrotation Yrotation
                                JOINT LeftFinger21
                                {
                                    OFFSET   5.111620   0.000000   0.000000
                                    CHANNELS 3 Zrotation Xrotation Yrotation
                                    JOINT LeftFinger22
                                    {
                                        OFFSET   2.788160   0.000016   0.000000
                                        CHANNELS 3 Zrotation Xrotation Yrotation
                                        End Site
                                        {
                                            OFFSET   2.727660   0.000000   0.000000
                                        }
                                    }
                                }
                            }
                            JOINT LeftFinger3
                            {
                                OFFSET   7.899780   0.000017  -1.078090
                                CHANNELS 3 Zrotation Xrotation Yrotation
                                JOINT LeftFinger31
                                {
                                    OFFSET   4.646930   0.000000   0.000000
                                    CHANNELS 3 Zrotation Xrotation Yrotation
                                    JOINT LeftFinger32
                                    {
                                        OFFSET   2.323470   0.000000   0.000000
                                        CHANNELS 3 Zrotation Xrotation Yrotation
                                        End Site
                                        {
                                            OFFSET   2.273050   0.000000   0.000000
                                        }
                                    }
                                }
                            }
                            JOINT LeftFinger4
                            {
                                OFFSET   7.435090   0.000000  -3.252850
                                CHANNELS 3 Zrotation Xrotation Yrotation
                                JOINT LeftFinger41
                                {
                                    OFFSET   3.717550   0.000000   0.000000
                                    CHANNELS 3 Zrotation Xrotation Yrotation
                                    JOINT LeftFinger42
                                    {
                                        OFFSET   1.858770   0.000000   0.000000
                                        CHANNELS 3 Zrotation Xrotation Yrotation
                                        End Site
                                        {
                                            OFFSET   1.818440   0.000000   0.000000
                                        }
                                    }
                                }
                            }
                        }
                    }
                }
            }
            JOINT RightCollar
            {
                OFFSET  -3.911900  19.017000  -0.467063
                CHANNELS 3 Zrotation Xrotation Yrotation
                JOINT RightShoulder
                {
                    OFFSET -10.383700   0.000019   0.000000
                    CHANNELS 3 Zrotation Xrotation Yrotation
                    JOINT RightElbow
                    {
                        OFFSET -26.662100   0.001175   0.000102
                        CHANNELS 3 Zrotation Xrotation Yrotation
                        JOINT RightWrist
                        {
                            OFFSET -28.869000   0.000016  -0.000079
                            CHANNELS 3 Zrotation Xrotation Yrotation
                            JOINT RightFinger0
                            {
                                OFFSET  -2.044660  -2.323490   3.252850
                                CHANNELS 3 Zrotation Xrotation Yrotation
                                JOINT RightFinger01
                                {
                                    OFFSET  -3.088140   0.000000   0.000000
                                    CHANNELS 3 Zrotation Xrotation Yrotation
                                    JOINT RightFinger02
                                    {
                                        OFFSET  -2.639460   0.000000   0.000000
                                        CHANNELS 3 Zrotation Xrotation Yrotation
                                        End Site
                                        {
                                            OFFSET  -2.582190   0.000000   0.000000
                                        }
                                    }
                                }
                            }
                            JOINT RightFinger1
                            {
                                OFFSET  -8.364480   0.000000   3.252850
                                CHANNELS 3 Zrotation Xrotation Yrotation
                                JOINT RightFinger11
                                {
                                    OFFSET  -4.646930   0.000000   0.000000
                                    CHANNELS 3 Zrotation Xrotation Yrotation
                                    JOINT RightFinger12
                                    {
                                        OFFSET  -2.323470   0.000000   0.000000
                                        CHANNELS 3 Zrotation Xrotation Yrotation
                                        End Site
                                        {
                                            OFFSET  -2.273050   0.000000   0.000000
                                        }
                                    }
                                }
                            }
                            JOINT RightFinger2
                            {
                                OFFSET  -8.364480   0.000000   1.078090
                                CHANNELS 3 Zrotation Xrotation Yrotation
                                JOINT RightFinger21
                                {
                                    OFFSET  -5.111620   0.000000   0.000000
                                    CHANNELS 3 Zrotation Xrotation Yrotation
                                    JOINT RightFinger22
                                    {
                                        OFFSET  -2.788160   0.000000   0.000000
                                        CHANNELS 3 Zrotation Xrotation Yrotation
                                        End Site
                                        {
                                            OFFSET  -2.727660   0.000000   0.000000
                                        }
                                    }
                                }
                            }
                            JOINT RightFinger3
                            {
                                OFFSET  -7.899780   0.000000  -1.078090
                                CHANNELS 3 Zrotation Xrotation Yrotation
                                JOINT RightFinger31
                                {
                                    OFFSET  -4.646930   0.000000   0.000000
                                    CHANNELS 3 Zrotation Xrotation Yrotation
                                    JOINT RightFinger32
                                    {
                                        OFFSET  -2.323470   0.000000   0.000000
                                        CHANNELS 3 Zrotation Xrotation Yrotation
                                        End Site
                                        {
                                            OFFSET  -2.273050   0.000000   0.000000
                                        }
                                    }
                                }
                            }
                            JOINT RightFinger4
                            {
                                OFFSET  -7.435090   0.000000  -3.252850
                                CHANNELS 3 Zrotation Xrotation Yrotation
                                JOINT RightFinger41
                                {
                                    OFFSET  -3.717550   0.000000   0.000000
                                    CHANNELS 3 Zrotation Xrotation Yrotation
                                    JOINT RightFinger42
                                    {
                                        OFFSET  -1.858770   0.000000   0.000000
                                        CHANNELS 3 Zrotation Xrotation Yrotation
                                        End Site
                                        {
                                            OFFSET  -1.818440   0.000000   0.000000
                                        }
                                    }
                                }
                            }
                        }
                    }
                }
            }
        }
    }
    JOINT LeftHip
    {
        OFFSET   9.783040   0.000000   0.000000
        CHANNELS 3 Zrotation Xrotation Yrotation
        JOINT LeftKnee
        {
            OFFSET   0.000032 -41.789100  -0.002222
            CHANNELS 3 Zrotation Xrotation Yrotation
            JOINT LeftAnkle
            {
                OFFSET   0.000087 -41.133200  -0.000135
                CHANNELS 3 Zrotation Xrotation Yrotation
                JOINT LeftToe
                {
                    OFFSET   0.000000  -6.358960  14.674500
                    CHANNELS 3 Zrotation Xrotation Yrotation
                    End Site
                    {
                        OFFSET   0.000000   0.000000   3.913200
                    }
                }
            }
        }
    }
    JOINT RightHip
    {
        OFFSET  -9.783040   0.000000   0.000000
        CHANNELS 3 Zrotation Xrotation Yrotation
        JOINT RightKnee
        {
            OFFSET   0.000047 -41.789100  -0.000896
            CHANNELS 3 Zrotation Xrotation Yrotation
            JOINT RightAnkle
            {
                OFFSET  -0.000117 -41.133300  -0.000248
                CHANNELS 3 Zrotation Xrotation Yrotation
                JOINT RightToe
                {
                    OFFSET   0.000000  -6.358970  14.674500
                    CHANNELS 3 Zrotation Xrotation Yrotation
                    End Site
                    {
                        OFFSET   0.000000   0.000000   3.913200
                    }
                }
            }
        }
    }
}
MOTION
Frames: 6
Frame Time:   0.016667
 -4.291360  89.366200   0.267181  -0.657354 -11.813600   1.705340   1.847410   6.986620  -1.969070   3.982180  13.901000  -4.213080   4.155430  -1.495390   0.108521   6.838780  -2.984840   2.192210  -8.423100  -0.393128  -5.991450  -3.028180  30.336900 -76.519600  25.390100   5.720660 -103.906000  38.591900  19.903700 -35.121300  46.920200  52.880400 -92.430400 -40.562200  -0.007908  -0.001147 -15.844800   0.001712  -0.001152 -54.064200  -0.316961   0.229627 -44.234800  -0.001148  -0.007259 -33.176100  -0.000881   0.000274 -59.983400  -2.595080   1.498390 -60.017400  -0.000705  -0.003428 -45.013000   0.000490   0.006552 -73.100000  -4.193710   1.275130 -73.146700  -0.002491   0.000797 -54.860100   0.001484   0.002737 -88.492400  -9.996610   0.261769 -110.000000  -0.003472  -0.003162 -80.000000   0.001294  -0.007346   8.337340  -9.144910  16.213500  18.090900  40.015000  63.698000 -10.143900  25.725600  82.806300 -95.941000  22.639500  42.216500 -26.585200  26.027600  62.946800  49.743900   0.002434  -0.002888  25.400500   0.001576   0.000896  -5.519960   1.090610 -11.138800   0.000060   0.001334  -0.001969  -0.004096   0.000948  -0.012092   7.202190  -1.420400 -11.102300   7.339170  -0.000780  -0.002711   4.887890  -0.000710  -0.000205  10.212900  -2.008420 -11.012700  10.406400  -0.009467  -0.010908   6.930680  -0.006061  -0.006941   9.715910  -2.128650 -12.217500  14.916000   0.002845   0.003677   9.934090  -0.000460  -0.010264   5.178060  14.114200   1.142840   1.898160   0.320375   7.570930  -7.881800  -1.708440  -1.004900   0.000000   0.000000   0.000000   2.362560  12.330000  -4.288650   1.509230   2.378520  -8.942680  -4.520030  -4.129060  -3.045990   0.000000   0.000000   0.000000
 -4.296910  89.366000   0.235145  -0.648048 -11.798100   1.702000   1.848460   6.963010  -1.974660   3.983830  13.853500  -4.223390   4.147630  -1.444910   0.104766   6.825930  -2.884090   2.209140  -8.444300  -0.379953  -6.047480  -2.915320  30.341500 -76.545900  25.441000   5.629940 -103.861000  38.617400  20.040700 -35.133700  46.410300  52.609200 -91.787300 -40.632000  -0.008126  -0.001163 -15.928700   0.001678  -0.001164 -54.024300  -0.336713   0.244417 -44.202200  -0.001224  -0.007338 -33.151700  -0.000947   0.000196 -59.924000  -2.603910   1.507140 -59.958300  -0.000654  -0.003554 -44.968600   0.000478   0.006884 -73.060500  -4.180170   1.275010 -73.107000  -0.002432   0.000882 -54.830300   0.001597   0.002897 -88.455000  -9.996700   0.268255 -110.000000  -0.003592  -0.003038 -80.000000   0.001246  -0.007466   8.357160  -9.136180  16.181500  17.922800  40.057000  63.815800 -10.195100  25.616200  82.800800 -95.876200  22.597900  42.058000 -26.642100  26.136700  63.037500  49.653700   0.002485  -0.002958  25.294600   0.001698   0.000908  -5.577340   1.107530 -11.196200   0.000058   0.001355  -0.001846  -0.003929   0.000962  -0.012162   7.198360  -1.427910 -11.160400   7.337870  -0.000797  -0.002733   4.887020  -0.000725  -0.000217  10.128700  -2.003620 -11.072600  10.323000  -0.009630  -0.010813   6.875100  -0.006191  -0.006860   9.464230  -2.069440 -12.220900  14.528700   0.002898   0.003829   9.676120  -0.000433  -0.010230   5.175090  14.080700   1.152850   1.898130   0.318419   7.572070  -7.887910  -1.682550  -1.010010   0.000000   0.000000  -0.000000   2.343960  12.295700  -4.279470   1.529910   2.377780  -8.919130  -4.514590  -4.118470  -3.058860  -0.000000   0.000000   0.000000
 -4.301870  89.366600   0.201945  -0.643775 -11.781100   1.690880   1.849950   6.941910  -1.978820   3.986250  13.811100  -4.231040   4.136190  -1.405980   0.103580   6.806620  -2.806330   2.232350  -8.462800  -0.372841  -6.091680  -2.847230  30.366800 -76.548700  25.491100   5.581520 -103.824000  38.668500  20.181000 -35.196000  45.895900  52.328600 -91.135800 -40.710500  -0.008349  -0.001171 -16.020500   0.001631  -0.001175 -53.967300  -0.414833   0.301968 -44.155700  -0.001296  -0.007427 -33.116800  -0.001016   0.000095 -59.844100  -2.615560   1.518770 -59.878800  -0.000607  -0.003679 -44.909000   0.000474   0.007222 -73.065700  -4.181960   1.274920 -73.112200  -0.002371   0.000962 -54.834200   0.001708   0.003066 -88.459600  -9.996800   0.267462 -110.000000  -0.003708  -0.002906 -80.000000   0.001199  -0.007585   8.372640  -9.132840  16.155800  17.822200  40.098500  63.879000 -10.213900  25.535200  82.795600 -95.839100  22.542700  41.994100 -26.690300  26.249800  63.119100  49.608900   0.002517  -0.002903  25.241100   0.001830   0.000917  -5.684950   1.119310 -11.132800   0.000060   0.001374  -0.001719  -0.003768   0.000977  -0.012232   7.203820  -1.420890 -11.098500   7.341870  -0.000813  -0.002755   4.889690  -0.000740  -0.000231  10.092100  -1.985760 -11.012200  10.283700  -0.009785  -0.010715   6.848920  -0.006322  -0.006782   9.247010  -2.016220 -12.190200  14.193200   0.002948   0.003974   9.452670  -0.000408  -0.010195   5.172020  14.040500   1.164250   1.901020   0.322047   7.576620  -7.893630  -1.658570  -1.009660  -0.000000   0.000000   0.000000   2.320560  12.253100  -4.238410   1.560690   2.385690  -8.898620  -4.506920  -4.110240  -3.092220   0.000000   0.000000   0.000000
 -4.307850  89.368300   0.167722  -0.641940 -11.764600   1.674670   1.851870   6.930900  -1.980850   3.989900  13.789000  -4.234770   4.121460  -1.387580   0.103336   6.782160  -2.769540   2.256570  -8.481700  -0.370785  -6.129890  -2.826440  30.404100 -76.532700  25.507500   5.566840 -103.807000  38.704600  20.265700 -35.244100  45.444700  52.079100 -90.564100 -40.785800  -0.008571  -0.001178 -16.107800   0.001580  -0.001184 -53.925600  -0.474313   0.345560 -44.122000  -0.001364  -0.007515 -33.091500  -0.001083  -0.000000 -59.784800  -2.624200   1.527400 -59.819800  -0.000560  -0.003805 -44.864800   0.000473   0.007559 -73.094200  -4.191750   1.274820 -73.140900  -0.002310   0.001044 -54.855700   0.001819   0.003236 -88.491700  -9.996890   0.261906 -110.000000  -0.003820  -0.002771 -80.000000   0.001153  -0.007702   8.377910  -9.133280  16.131800  17.793200  40.135600  63.886700 -10.215500  25.497600  82.792800 -95.819200  22.491000  41.968600 -26.717800  26.341900  63.177300  49.591200   0.002550  -0.002848  25.219400   0.001971   0.000925  -5.757580   1.124650 -11.016300   0.000063   0.001393  -0.001592  -0.003606   0.000992  -0.012301   7.222430  -1.409450 -10.983800   7.357950  -0.000830  -0.002779   4.900400  -0.000755  -0.000246  10.077400  -1.961140 -10.899900  10.264500  -0.009937  -0.010620   6.836130  -0.006454  -0.006702   9.091020  -1.973050 -12.143400  13.951400   0.002996   0.004116   9.291640  -0.000385  -0.010159   5.169940  13.999800   1.172310   1.907260   0.328502   7.584880  -7.899580  -1.635540  -1.007280  -0.000000   0.000000   0.000000   2.297390  12.206700  -4.191480   1.595240   2.403830  -8.883290  -4.500130  -4.106330  -3.116330   0.000000   0.000000   0.000000
 -4.316360  89.371100   0.132024  -0.642052 -11.751300   1.653730   1.854320   6.931020  -1.979320   3.994790  13.789300  -4.231880   4.102640  -1.389700   0.103186   6.751340  -2.774200   2.275310  -8.503220  -0.377728  -6.164320  -2.846510  30.439600 -76.506300  25.508200   5.604370 -103.799000  38.706100  20.221300 -35.223600  45.133200  51.913100 -90.174100 -40.846700  -0.008786  -0.001187 -16.177900   0.001534  -0.001192 -53.919200  -0.470880   0.343073 -44.116800  -0.001427  -0.007593 -33.087700  -0.001145  -0.000055 -59.772700  -2.625970   1.529150 -59.807800  -0.000514  -0.003928 -44.855900   0.000473   0.007887 -73.167200  -4.216760   1.274750 -73.214200  -0.002253   0.001130 -54.910700   0.001930   0.003402 -88.610400  -9.996990   0.241336 -110.000000  -0.003931  -0.002639 -80.000000   0.001112  -0.007815   8.376770  -9.146720  16.104700  17.877300  40.179300  63.807100 -10.208200  25.513700  82.794100 -95.841600  22.438400  42.024200 -26.708300  26.385000  63.185200  49.619600   0.002600  -0.002888  25.255300   0.002127   0.000932  -5.760060   1.113330 -10.867400   0.000062   0.001414  -0.001471  -0.003441   0.001002  -0.012364   7.263330  -1.398840 -10.834300   7.395900  -0.000852  -0.002807   4.925660  -0.000772  -0.000263  10.079200  -1.936610 -10.752900  10.258500  -0.010087  -0.010529   6.832130  -0.006583  -0.006613   9.047290  -1.954910 -12.108600  13.882200   0.003041   0.004256   9.245560  -0.000363  -0.010126   5.169440  13.964100   1.174190   1.915870   0.333358   7.596060  -7.906300  -1.612410  -0.997938  -0.000000   0.000000   0.000000   2.281640  12.158200  -4.168800   1.628680   2.429670  -8.880710  -4.497610  -4.113170  -3.101890   0.000000   0.000000   0.000000
 -4.327170  89.374500   0.096750  -0.642635 -11.744800   1.631330   1.856580   6.931840  -1.974220   3.998650  13.791000  -4.221990   4.082370  -1.401400   0.103165   6.717940  -2.798260   2.289360  -8.527950  -0.388292  -6.197700  -2.871410  30.471100 -76.478500  25.504900   5.685730 -103.790000  38.717900  20.147400 -35.179300  44.919800  51.805200 -89.903200 -40.893900  -0.008993  -0.001196 -16.233100   0.001487  -0.001198 -53.918500  -0.446847   0.325664 -44.116100  -0.001485  -0.007666 -33.087100  -0.001203  -0.000103 -59.771000  -2.626220   1.529400 -59.806100  -0.000465  -0.004053 -44.854600   0.000474   0.008211 -73.247500  -4.244250   1.274680 -73.294800  -0.002196   0.001217 -54.971100   0.002043   0.003568 -88.755500  -9.997090   0.216161 -110.000000  -0.004039  -0.002508 -80.000000   0.001071  -0.007924   8.377050  -9.171240  16.078000  18.017000  40.237900  63.687900 -10.206900  25.538400  82.796000 -95.887300  22.383500  42.128700 -26.695100  26.401500  63.173200  49.671000   0.002655  -0.002974  25.318200   0.002285   0.000939  -5.746670   1.097110 -10.771500   0.000058   0.001433  -0.001351  -0.003269   0.001012  -0.012425   7.303540  -1.392620 -10.737700   7.434460  -0.000877  -0.002837   4.951330  -0.000789  -0.000281  10.073200  -1.915960 -10.657700  10.251900  -0.010235  -0.010438   6.827760  -0.006711  -0.006525   9.033190  -1.951510 -12.090200  13.859800   0.003084   0.004394   9.230620  -0.000342  -0.010090   5.169360  13.933700   1.174330   1.924920   0.341032   7.609600  -7.912930  -1.591600  -0.985994   0.000000   0.000000   0.000000   2.271080  12.113200  -4.160670   1.658210   2.460170  -8.878160  -4.496010  -4.124420  -3.081760  -0.000000   0.000000   0.000000
